<svg width="33" height="33" viewBox="0 0 33 33" fill="none" xmlns="http://www.w3.org/2000/svg">
<circle cx="16.5" cy="16.5" r="16" fill="white" stroke="#54595F"/>
<path d="M25.6875 14.7109C25.6875 20.4531 17.1735 25.101 16.8109 25.293C16.7153 25.3444 16.6085 25.3713 16.5 25.3713C16.3915 25.3713 16.2847 25.3444 16.1891 25.293C15.8265 25.101 7.3125 20.4531 7.3125 14.7109C7.31402 13.3625 7.85035 12.0698 8.80382 11.1163C9.75728 10.1628 11.05 9.62652 12.3984 9.625C14.0924 9.625 15.5755 10.3534 16.5 11.5847C17.4245 10.3534 18.9076 9.625 20.6016 9.625C21.95 9.62652 23.2427 10.1628 24.1962 11.1163C25.1497 12.0698 25.686 13.3625 25.6875 14.7109Z" fill="#54595F"/>
</svg>
