<svg width="30" height="30" viewBox="0 0 30 30" fill="none" xmlns="http://www.w3.org/2000/svg">
<path d="M23.6346 17.7397L18.9284 15.3868C18.7893 15.3176 18.6346 15.2864 18.4796 15.2962C18.3247 15.306 18.1751 15.3565 18.0459 15.4426L15.7398 16.9794C14.5724 16.3818 13.6225 15.4321 13.0249 14.2647L14.5633 11.9603C14.6494 11.8311 14.6999 11.6815 14.7097 11.5266C14.7195 11.3717 14.6883 11.2169 14.6191 11.0779L12.266 6.37206C12.1928 6.22483 12.08 6.10097 11.9402 6.01444C11.8004 5.92792 11.6392 5.88217 11.4748 5.88235C9.99253 5.88235 8.57101 6.47111 7.52292 7.51911C6.47483 8.56711 5.88602 9.9885 5.88602 11.4706C5.88991 14.8236 7.22374 18.0382 9.59489 20.4091C11.966 22.7801 15.1809 24.1138 18.5342 24.1176C20.0164 24.1176 21.4379 23.5289 22.486 22.4809C23.5341 21.4329 24.1229 20.0115 24.1229 18.5294C24.123 18.3654 24.0773 18.2046 23.9911 18.0652C23.9048 17.9257 23.7814 17.813 23.6346 17.7397ZM18.5342 22.3529C15.6488 22.3494 12.8827 21.2018 10.8424 19.1617C8.80214 17.1216 7.65439 14.3557 7.65088 11.4706C7.65097 10.5478 7.98482 9.65615 8.59083 8.96019C9.19685 8.26422 10.0341 7.81089 10.9482 7.68382L12.8102 11.4074L11.2821 13.6985C11.2018 13.8194 11.1525 13.9581 11.1387 14.1026C11.1248 14.247 11.1468 14.3926 11.2027 14.5265C12.0141 16.4555 13.5488 17.9901 15.478 18.8015C15.612 18.8573 15.7576 18.8793 15.902 18.8654C16.0464 18.8516 16.1852 18.8023 16.3061 18.7221L18.5974 17.1941L22.3213 19.0559C22.1942 19.9699 21.7409 20.8071 21.0448 21.4131C20.3488 22.019 19.4571 22.3529 18.5342 22.3529ZM15.0045 3.30612e-07C12.4039 -0.000545546 9.84791 0.674894 7.58719 1.96005C5.32646 3.24521 3.43868 5.09594 2.10905 7.33068C0.779421 9.56541 0.0536228 12.1074 0.00285901 14.7072C-0.0479047 17.307 0.57811 19.8754 1.81949 22.1603L0.110512 27.2882C-0.0104741 27.651 -0.0280319 28.0403 0.0598065 28.4124C0.147645 28.7846 0.337408 29.125 0.607828 29.3954C0.878248 29.6658 1.21864 29.8555 1.59084 29.9433C1.96305 30.0312 2.35237 30.0136 2.71515 29.8926L7.84355 28.1838C9.85105 29.2731 12.0808 29.8897 14.3628 29.9865C16.6448 30.0833 18.9188 29.6578 21.0114 28.7424C23.1039 27.827 24.9598 26.4459 26.4375 24.7044C27.9152 22.9629 28.9757 20.9071 29.5381 18.6935C30.1005 16.48 30.15 14.1673 29.6828 11.9317C29.2156 9.69614 28.244 7.59677 26.8422 5.79367C25.4403 3.99058 23.6452 2.53137 21.5937 1.52732C19.5422 0.523268 17.2885 0.000883618 15.0045 3.30612e-07ZM15.0045 28.2353C12.6777 28.2358 10.3919 27.6231 8.37742 26.4588C8.24312 26.3816 8.0911 26.3406 7.9362 26.3397C7.84125 26.3403 7.74697 26.3556 7.65677 26.3853L2.15775 28.2176C2.10593 28.2349 2.05031 28.2374 1.99714 28.2249C1.94396 28.2123 1.89534 28.1852 1.85671 28.1466C1.81807 28.108 1.79097 28.0594 1.77842 28.0062C1.76587 27.953 1.76838 27.8974 1.78566 27.8456L3.61818 22.3529C3.65782 22.2343 3.67177 22.1085 3.65909 21.984C3.64642 21.8595 3.6074 21.7391 3.54464 21.6309C2.08459 19.109 1.49772 16.1757 1.87507 13.2863C2.25242 10.3968 3.57289 7.71259 5.63163 5.65012C7.69037 3.58765 10.3723 2.2622 13.2613 1.8794C16.1503 1.4966 19.0849 2.07786 21.6098 3.53299C24.1347 4.98812 26.1088 7.23577 27.2258 9.92725C28.3427 12.6187 28.5401 15.6036 27.7874 18.4187C27.0346 21.2338 25.3738 23.7218 23.0625 25.4968C20.7512 27.2717 17.9187 28.2343 15.0045 28.2353Z" fill="white"/>
</svg>
